<svg xmlns="http://www.w3.org/2000/svg" viewBox="0 0 568.75 362.63"><defs><style>.cls-1{fill:#007d3d;}</style></defs><g id="Layer_2" data-name="Layer 2"><g id="Layer_1-2" data-name="Layer 1"><path class="cls-1" d="M47.75,191.88c-7.26,8.68-8.29,21.66-15.7,30.53S10.86,234.5,0,231l.55-3.23c4.17-.21,9-.47,12-4.09,2-2.35,2.88-9,3.46-11.85,1.7-7.19,4.59-14.31,9.28-19.91,11.35-13.57,35.2-16.36,48.95-4.86,4,3.33,11.6,16,14.16,20.32l-5.32-.72c-2-3.84-8.07-12.8-11.33-15.53C64.73,185.18,54.1,184.29,47.75,191.88Z"/><path d="M555.53,351.84q-19.85-.52-26.19-3.66t-10.43-14.64q-72.7-198.3-91-247.61-23.37-63-30-82.88c-.68-2-1.52-3-2.54-3-1.7,0-3.05,1.87-4.06,5.59l-2.18,9.28a58.89,58.89,0,0,0-4.74,13.5q-26.89,74.54-64.25,180.82a87.79,87.79,0,0,0-16-12.82Q278.23,180.1,232,177v-3q46.77-5.58,72.7-27.71t25.93-56.69q0-39.66-31.52-60.5-27-17.79-81.86-18.3H118.06A38.75,38.75,0,0,1,107.9,9.26h-6.11q-12.71,0-12.71,4.81,0,5.37,13.73,5.36,22.36.51,25.93,6.61,2,3.56,2,25.93V172.44c-16,4.79-30.29,17.33-39.14,38l-.26-.37C13.73,221,14.05,320.7,116.66,353.53c-3,.3-6.6.45-10.8.45Q90.1,354,90.1,358.3t8.64,4.33h62q57.45,0,69.15-.51a267.86,267.86,0,0,0,29.62-3.65q6.82.06,13.3.49,31,2,54.4,2,13.22,0,13.22-5.08,0-4.57-14.74-5.09-23.91-1.51-25.43-2a7.85,7.85,0,0,1-4.05-2.32q46.54-24.93,46.55-76.38a105.19,105.19,0,0,0-2.51-23.5h93.07q17.79,54,22.35,69.72l2.61,7.1,4.15,13.45a29.31,29.31,0,0,1,1,4q0,8.46-44.74,9-13.72,0-13.73,5.86Q405,361,415.2,361a54,54,0,0,0,7.63-.51l64.57-2,64.57,2a74,74,0,0,0,9.15.51c5.09,0,7.63-1.44,7.63-4.34S564.34,352.16,555.53,351.84ZM181.11,22.48Q199.41,21,208.06,21q32.53,0,44.23,8.65,22.36,16.27,22.37,65.08,0,34.07-16,53.64t-45,20.59l-28,1h-4.58Zm3,326.42q-3-2-3-16.78V180.6q41.19,0,56.44,4.58,51.85,15.25,51.86,79.32,0,43.22-20.85,65.59t-55.93,22.37Q189.25,352.46,184.16,348.9Zm152.55-114a75.45,75.45,0,0,0-5.38-11.11q27.72-82.39,47.82-135.15l24.43,70.48Q422.74,212,431,234.9Z"/></g></g></svg>