<?xml version="1.0" encoding="UTF-8" standalone="no"?><!DOCTYPE svg PUBLIC "-//W3C//DTD SVG 1.1//EN" "http://www.w3.org/Graphics/SVG/1.1/DTD/svg11.dtd">
<svg style="fill-rule:nonzero;clip-rule:evenodd;stroke-linecap:round;stroke-linejoin:round;" xmlns:xlink="http://www.w3.org/1999/xlink" xmlns="http://www.w3.org/2000/svg" xml:space="preserve" version="1.1" viewBox="0 0 650 400">
<defs/>
<g id="Letter A">
<path stroke="#000000" stroke-opacity="0" stroke-width="0.1" d="M467.094+4.03125L459.062+24.0625L336.094+330.5C324.383+359.824+307.29+374.5+284.844+374.5L280.969+374.5L240.281+374.5L240.281+393.062L280.969+393.062L411.719+393.062L411.719+374.5L399.531+374.5C386.194+374.5+375.532+371.727+367.562+366.188C359.593+360.648+355.625+354.293+355.625+347.125C355.625+342.238+356.261+337.356+357.562+332.469C357.888+330.514+359.51+325.632+362.438+317.812L379.031+273.344L522+273.344L551.781+350.562C553.082+353.495+553.719+356.411+553.719+359.344C553.719+369.444+541.03+374.5+515.656+374.5L503.938+374.5L503.938+393.062L647.906+393.062L647.906+374.5L636.688+374.5C620.422+374.5+609.848+367.828+604.969+354.469L475.156+24.0625L467.094+4.03125ZM451.75+93.9688L514.688+254.75L387.312+254.75L451.75+93.9688Z" fill="#000000" stroke-linecap="round" opacity="1" stroke-linejoin="round"/>
</g>
<g id="Letter B">
<path stroke="#000000" stroke-width="0.1" d="M258.905+393.07L76.4657+393.07L76.4657+373.631L106.71+373.631C114.84+373.631+121.262+372.353+125.978+369.795C130.693+367.237+133.051+363.571+133.051+358.797L133.051+56.4731C133.051+41.8088+124.921+34.4766+108.661+34.4766L76.4657+34.4766L76.4657+15.0379L264.758+15.0379C300.206+15.0379+328.092+23.2226+348.417+39.5921C368.742+55.9616+378.905+77.7875+378.905+105.07C378.905+126.214+371.994+144.203+358.173+159.038C344.352+173.873+323.783+185.724+296.466+194.59C364.433+209.937+398.417+242.335+398.417+291.784C398.417+321.113+385.815+345.326+360.612+364.424C335.409+383.521+301.506+393.07+258.905+393.07ZM184.271+53.4038L184.271+188.452L252.563+188.452C298.417+188.452+321.344+160.828+321.344+105.581C321.344+76.5939+313.864+57.1552+298.905+47.2653C286.222+38.7395+262.807+34.4766+228.661+34.4766C213.376+34.4766+202.157+34.9029+195.002+35.7555C187.848+36.6081+184.271+42.4909+184.271+53.4038ZM258.417+207.891L184.271+207.891L184.271+353.17C184.271+366.811+193.051+373.631+210.612+373.631L254.515+373.631C311.1+373.631+339.393+346.008+339.393+290.761C339.393+264.843+332.238+244.551+317.929+229.887C303.62+215.223+283.783+207.891+258.417+207.891Z" fill="#000000" stroke-linecap="round" opacity="1" stroke-linejoin="round"/>
</g>
<g id="Apple">
<path d="M54.7776+240.279C66.4701+233.462+79.4309+232.414+91.2721+235.275C95.8004+222.871+103.886+211.648+115.579+204.831C140.717+190.175+175.168+195.769+173.593+226.766C170.439+288.838+169.578+319.688+167.65+349.967C167.192+357.171+155.975+357.837+150.079+358.02C146.621+363.29+142.858+367.925+137.012+371.333C120.058+381.218+60.3663+373.71+32.9434+316.471C19.8413+289.124+29.6387+254.935+54.7776+240.279L54.7776+240.279Z" opacity="1" fill="#000000"/>
<path d="M85.5786+228.355C85.5786+228.355+89.6789+229.407+90.3194+229.134C90.9345+228.871+88.3023+224.961+88.1506+224.759C84.895+220.418+82.3798+215.403+79.0495+210.963C72.7197+202.523+62.0432+200.651+53.0791+201.538C44.115+202.425+41.589+202.504+33.6998+207.159C18.5437+216.102+19.9926+230.388+16.3288+242.558C16.3288+242.558+15.6031+248.261+7.54308+249.349L3.14965+249.732C3.10103+249.757+2.23904+252.541+2.37679+252.681C3.9168+254.247+13.8752+254.555+15.9417+254.569C31.2641+254.673+35.8109+243.969+38.6072+237.228C42.2564+228.43+45.1033+214.29+54.6228+209.685C59.8644+207.15+71.2987+207.811+75.2968+212.915C75.2968+212.915+78.335+216.822+80.9055+220.682C83.4759+224.542+85.5786+228.355+85.5786+228.355Z" opacity="1" fill="#007d3d"/>
</g>
</svg>
